# xmcd
#
# Track frame offsets: 
#        150
#        14100
#        38625
#        60900
#        80212
#        112289
#        131212
#        171111
#        201262
#        220012
#        243318
#
# Disc length: 3297 seconds
#
# Revision: 0
# Processed by: cddbd v1.4PL0 Copyright (c) Steve Scherf et al.
# Submitted via: ExactAudioCopy v0.90b4
#
DISCID=a10cdf0b
DTITLE=Smokin' Gun - Runnin' For Cover
DYEAR=1900
DGENRE=
TTITLE0=Don't Want You No More
TTITLE1=It's No My Cross To Bear
TTITLE2=Before You Accuse Me
TTITLE3=Walkin' By Myself
TTITLE4=The Thrill Is Gone
TTITLE5=Sugaree
TTITLE6=Roadhouse Blues
TTITLE7=I Still Got The Blues
TTITLE8=Smoking Gun
TTITLE9=Cold Shot
TTITLE10=Message
EXTD=
EXTT0=
EXTT1=
EXTT2=
EXTT3=
EXTT4=
EXTT5=
EXTT6=
EXTT7=
EXTT8=
EXTT9=
EXTT10=
PLAYORDER=
